<svg xmlns="http://www.w3.org/2000/svg" width="93.791" height="93.792" viewBox="0 0 93.791 93.792">
  <path id="volcano-light" d="M39.011,10.751a2.938,2.938,0,0,1-2.363,1.612,2.974,2.974,0,0,1-2.619-1.172,5.871,5.871,0,1,0-.293,7.308,2.925,2.925,0,0,1,2.271-1.007,2.971,2.971,0,0,1,2.234,1.1l8.553,10.7c.018.037.055.037.092.037a.14.14,0,0,0,.092-.037l8.553-10.7a2.942,2.942,0,0,1,2.234-1.1A2.9,2.9,0,0,1,60.037,18.5a5.852,5.852,0,1,0-.293-7.308,2.935,2.935,0,0,1-4.982-.44,8.787,8.787,0,0,0-15.751,0ZM46.887,0A14.635,14.635,0,0,1,57.876,4.963a11.716,11.716,0,1,1,.348,19.615L51.557,32.93a5.968,5.968,0,0,1-9.341,0L35.55,24.579A11.727,11.727,0,1,1,35.9,4.963,14.635,14.635,0,0,1,46.887,0ZM5.861,84.213a3.689,3.689,0,0,0,3.7,3.7H84.213a3.7,3.7,0,0,0,2.766-6.154l-16.1-18.114L66.3,70.513a6.154,6.154,0,0,1-9.487.934l-6.319-6.319A12.287,12.287,0,0,0,35.018,63.59l-3.26,2.179a9.648,9.648,0,0,1-10.733,0L6.795,81.758a3.7,3.7,0,0,0-.934,2.454Zm55.568-16.96,5.421-8.132-7.381-8.3a11.7,11.7,0,0,0-8.755-3.938H43.059A11.669,11.669,0,0,0,34.3,50.824L25,61.282a3.828,3.828,0,0,0,3.5-.385l3.26-2.179a18.137,18.137,0,0,1,22.876,2.271l6.319,6.319a.338.338,0,0,0,.22.092.292.292,0,0,0,.256-.147Zm2.436-20.33,6.355,7.161h0l4.029,4.524h0L91.374,77.876a9.561,9.561,0,0,1-7.143,15.916H9.56A9.574,9.574,0,0,1,2.418,77.857L16.081,62.473l3.938-4.414,9.908-11.136a17.566,17.566,0,0,1,13.15-5.9h7.656a17.625,17.625,0,0,1,13.15,5.9Z" fill="#fff"/>
</svg>
